<svg width="29" height="26" viewBox="0 0 29 26" fill="none" xmlns="http://www.w3.org/2000/svg">
<path fill-rule="evenodd" clip-rule="evenodd" d="M0.398938 0.398938C0.00325031 0.794463 0 0.8229 0 3.9C0 6.9771 0.00325031 7.00554 0.398938 7.40106C0.650325 7.65261 0.98345 7.8 1.3 7.8C1.61655 7.8 1.94967 7.65261 2.20106 7.40106C2.58537 7.01691 2.6 6.92152 2.6 4.80106V2.6H7.8H13V13V23.4H10.7989C8.67848 23.4 8.58309 23.4146 8.19894 23.7989C7.67114 24.3266 7.67114 25.0734 8.19894 25.6011L8.59771 26H14.3H20.0023L20.4011 25.6011C20.9289 25.0734 20.9289 24.3266 20.4011 23.7989C20.0169 23.4146 19.9215 23.4 17.8011 23.4H15.6V13V2.6H20.8H26V4.80106C26 6.92152 26.0146 7.01691 26.3989 7.40106C26.6503 7.65261 26.9835 7.8 27.3 7.8C27.6166 7.8 27.9497 7.65261 28.2011 7.40106C28.5968 7.00554 28.6 6.9771 28.6 3.9C28.6 0.8229 28.5968 0.794463 28.2011 0.398938L27.8023 0H14.3H0.797713L0.398938 0.398938Z" fill="black"/>
</svg>
