<svg width="32" height="26" viewBox="0 0 32 26" fill="none" xmlns="http://www.w3.org/2000/svg">
<mask id="path-1-outside-1_1_98" maskUnits="userSpaceOnUse" x="0" y="0" width="32" height="13" fill="black">
<rect fill="white" width="32" height="13"/>
<path d="M31 12C31 10.5555 30.612 9.12506 29.8582 7.79048C29.1044 6.4559 27.9995 5.24327 26.6066 4.22183C25.2137 3.20038 23.5601 2.39013 21.7403 1.83732C19.9204 1.28452 17.9698 1 16 1C14.0302 1 12.0796 1.28452 10.2597 1.83733C8.43986 2.39013 6.78628 3.20038 5.3934 4.22183C4.00052 5.24327 2.89563 6.4559 2.14181 7.79048C1.38799 9.12506 1 10.5555 1 12L16 12H31Z"/>
</mask>
<path d="M31 12C31 10.5555 30.612 9.12506 29.8582 7.79048C29.1044 6.4559 27.9995 5.24327 26.6066 4.22183C25.2137 3.20038 23.5601 2.39013 21.7403 1.83732C19.9204 1.28452 17.9698 1 16 1C14.0302 1 12.0796 1.28452 10.2597 1.83733C8.43986 2.39013 6.78628 3.20038 5.3934 4.22183C4.00052 5.24327 2.89563 6.4559 2.14181 7.79048C1.38799 9.12506 1 10.5555 1 12L16 12H31Z" stroke="black" mask="url(#path-1-outside-1_1_98)"/>
<rect x="0.75" y="12.75" width="30.5" height="12.5" stroke="black" stroke-width="0.5"/>
</svg>
