<svg width="82" height="29" viewBox="0 0 82 29" fill="none" xmlns="http://www.w3.org/2000/svg">
<path d="M32.6043 21.7974C32.7446 20.4409 33.6216 19.751 35.247 19.751C35.9954 19.751 36.6035 19.903 37.0478 20.1954C37.4922 20.4994 37.726 20.9555 37.726 21.5752V24.6389C37.726 24.8143 37.7377 24.9312 37.7845 24.9897C37.8313 25.0598 37.9131 25.0832 38.0417 25.0832C38.1353 25.0832 38.2288 25.0832 38.3458 25.0598V25.9953C37.995 26.0889 37.7143 26.1239 37.4805 26.1239C36.9075 26.1239 36.5801 25.8901 36.4982 25.399C35.9837 25.8901 35.2821 26.1239 34.3817 26.1239C33.7503 26.1239 33.2591 25.9719 32.8966 25.6445C32.5224 25.3171 32.347 24.8844 32.347 24.3232C32.347 24.1595 32.3587 23.9957 32.4055 23.8437C32.4406 23.7034 32.4874 23.5748 32.5341 23.4578C32.5809 23.3526 32.6628 23.2474 32.7797 23.1538C32.8966 23.0603 32.9902 22.9901 33.0603 22.9199C33.1305 22.8615 33.2591 22.803 33.4228 22.7445C33.5865 22.6978 33.7152 22.651 33.797 22.6276C33.8789 22.6042 34.0192 22.5691 34.2297 22.5341C34.4285 22.5107 34.5571 22.4873 34.6273 22.4756C34.6974 22.4639 34.8377 22.4405 35.0482 22.4171C35.516 22.3587 35.8434 22.3119 36.0188 22.2651C36.1825 22.2183 36.2994 22.1599 36.3696 22.0663C36.4164 22.0079 36.4514 21.8675 36.4514 21.6337C36.4514 21.0256 36.0305 20.7216 35.2119 20.7216C34.7676 20.7216 34.4519 20.8034 34.2531 20.9671C34.0426 21.1309 33.914 21.4115 33.8672 21.7974H32.6043ZM36.4397 22.9433C36.3345 23.0018 36.2176 23.0486 36.0889 23.0953C35.9486 23.1421 35.8434 23.1655 35.7615 23.1772C35.6797 23.1889 35.551 23.2006 35.3756 23.224C35.2002 23.2474 35.0833 23.2708 35.0365 23.2708C34.8728 23.2941 34.7442 23.3175 34.6507 23.3409C34.5571 23.3643 34.4402 23.3877 34.2998 23.4345C34.1595 23.4812 34.0543 23.5397 33.9841 23.6099C33.914 23.68 33.8438 23.7619 33.797 23.8788C33.7386 23.9957 33.7152 24.1244 33.7152 24.2764C33.7152 24.5687 33.8087 24.7909 33.9958 24.9429C34.1829 25.1066 34.4519 25.1768 34.8027 25.1768C35.3873 25.1768 35.8434 25.0248 36.1708 24.6973C36.3462 24.5219 36.4397 24.1711 36.4397 23.6566V22.9433Z" fill="#38A56F"/>
<path d="M44.7498 23.6917C44.6563 24.4401 44.3523 25.0248 43.8611 25.4691C43.3583 25.9135 42.7269 26.1239 41.9785 26.1239C41.0664 26.1239 40.3531 25.8433 39.8152 25.2703C39.2773 24.6973 39.0084 23.949 39.0084 23.0135C39.0084 22.0196 39.2773 21.2244 39.8152 20.6397C40.3531 20.0551 41.0898 19.751 42.0136 19.751C42.7854 19.751 43.4051 19.9498 43.8728 20.3357C44.3406 20.7333 44.6212 21.2712 44.7031 21.9611H43.3817C43.2999 21.5869 43.1478 21.2946 42.914 21.0841C42.6801 20.8853 42.3761 20.78 42.0253 20.78C41.5108 20.78 41.1015 20.9788 40.8092 21.3647C40.5051 21.7506 40.3648 22.2768 40.3648 22.9433C40.3648 23.6216 40.5051 24.1361 40.7858 24.5103C41.0664 24.8844 41.464 25.0715 41.9785 25.0715C42.3761 25.0715 42.6918 24.9546 42.9491 24.7207C43.2063 24.4869 43.37 24.1361 43.4402 23.6917H44.7498Z" fill="#38A56F"/>
<path d="M45.8334 21.7974C45.9737 20.4409 46.8507 19.751 48.4761 19.751C49.2245 19.751 49.8326 19.903 50.2769 20.1954C50.7213 20.4994 50.9551 20.9555 50.9551 21.5752V24.6389C50.9551 24.8143 50.9668 24.9312 51.0136 24.9897C51.0604 25.0598 51.1422 25.0832 51.2709 25.0832C51.3644 25.0832 51.4579 25.0832 51.5749 25.0598V25.9953C51.2241 26.0889 50.9434 26.1239 50.7096 26.1239C50.1366 26.1239 49.8092 25.8901 49.7273 25.399C49.2128 25.8901 48.5112 26.1239 47.6108 26.1239C46.9794 26.1239 46.4882 25.9719 46.1257 25.6445C45.7516 25.3171 45.5762 24.8844 45.5762 24.3232C45.5762 24.1595 45.5878 23.9957 45.6346 23.8437C45.6697 23.7034 45.7165 23.5748 45.7632 23.4578C45.81 23.3526 45.8919 23.2474 46.0088 23.1538C46.1257 23.0603 46.2193 22.9901 46.2895 22.9199C46.3596 22.8615 46.4882 22.803 46.6519 22.7445C46.8157 22.6978 46.9443 22.651 47.0261 22.6276C47.108 22.6042 47.2483 22.5691 47.4588 22.5341C47.6576 22.5107 47.7862 22.4873 47.8564 22.4756C47.9265 22.4639 48.0669 22.4405 48.2773 22.4171C48.7451 22.3587 49.0725 22.3119 49.2479 22.2651C49.4116 22.2183 49.5285 22.1599 49.5987 22.0663C49.6455 22.0079 49.6805 21.8675 49.6805 21.6337C49.6805 21.0256 49.2596 20.7216 48.441 20.7216C47.9967 20.7216 47.681 20.8034 47.4822 20.9671C47.2717 21.1309 47.1431 21.4115 47.0963 21.7974H45.8334ZM49.6689 22.9433C49.5636 23.0018 49.4467 23.0486 49.3181 23.0953C49.1777 23.1421 49.0725 23.1655 48.9906 23.1772C48.9088 23.1889 48.7802 23.2006 48.6047 23.224C48.4293 23.2474 48.3124 23.2708 48.2656 23.2708C48.1019 23.2941 47.9733 23.3175 47.8798 23.3409C47.7862 23.3643 47.6693 23.3877 47.529 23.4345C47.3886 23.4812 47.2834 23.5397 47.2132 23.6099C47.1431 23.68 47.0729 23.7619 47.0261 23.8788C46.9677 23.9957 46.9443 24.1244 46.9443 24.2764C46.9443 24.5687 47.0378 24.7909 47.2249 24.9429C47.412 25.1066 47.681 25.1768 48.0318 25.1768C48.6164 25.1768 49.0725 25.0248 49.3999 24.6973C49.5753 24.5219 49.6689 24.1711 49.6689 23.6566V22.9433Z" fill="#38A56F"/>
<path d="M58.2245 17.6462V25.9719H56.9733V25.1417C56.5874 25.8082 55.9443 26.1356 55.0439 26.1356C54.1903 26.1356 53.5121 25.855 53.0092 25.2703C52.5064 24.6973 52.2609 23.9256 52.2609 22.9433C52.2609 21.9845 52.5064 21.2127 52.9976 20.6397C53.4887 20.0668 54.1552 19.7744 54.9971 19.7744C55.8391 19.7744 56.4822 20.0901 56.9149 20.7216V17.6462H58.2245ZM55.2427 20.8502C54.7282 20.8502 54.3306 21.0373 54.0383 21.4115C53.7459 21.7857 53.6056 22.2885 53.6056 22.9199C53.6056 23.5865 53.7459 24.1127 54.05 24.4869C54.354 24.8728 54.7633 25.0598 55.2895 25.0598C55.804 25.0598 56.2132 24.8728 56.5056 24.4986C56.7979 24.1244 56.9499 23.6099 56.9499 22.9433C56.9499 22.2885 56.7979 21.774 56.4939 21.3998C56.1899 21.0373 55.7806 20.8502 55.2427 20.8502Z" fill="#38A56F"/>
<path d="M65.1743 24.0893C65.0222 24.7441 64.6948 25.2586 64.2037 25.6211C63.7126 25.9953 63.1162 26.1707 62.438 26.1707C61.5259 26.1707 60.8009 25.8784 60.263 25.2937C59.7251 24.709 59.4679 23.949 59.4679 23.0252C59.4679 22.0897 59.7368 21.3063 60.2864 20.6865C60.836 20.0784 61.5376 19.7627 62.3912 19.7627C63.2682 19.7627 63.9698 20.0668 64.4843 20.6748C64.9988 21.2829 65.2561 22.1014 65.2561 23.1421V23.2824H60.8009C60.8126 23.8905 60.9646 24.3699 61.257 24.6973C61.5376 25.0248 61.9469 25.1885 62.4614 25.1885C62.8239 25.1885 63.1162 25.1066 63.3501 24.9312C63.5839 24.7558 63.7593 24.4752 63.8997 24.0893H65.1743ZM63.9231 22.3937C63.8763 21.8909 63.7243 21.4933 63.4436 21.201C63.163 20.9087 62.8122 20.7567 62.3795 20.7567C61.9352 20.7567 61.5844 20.897 61.3154 21.1776C61.0465 21.4583 60.8828 21.8675 60.8243 22.3937H63.9231Z" fill="#38A56F"/>
<path d="M67.661 19.9381V20.7917C68.1521 20.1135 68.7836 19.7744 69.5554 19.7744C69.9529 19.7744 70.292 19.868 70.5844 20.0434C70.8767 20.2305 71.0989 20.476 71.2392 20.8034C71.7186 20.1252 72.3735 19.7744 73.192 19.7744C73.7533 19.7744 74.2327 19.9498 74.6069 20.2889C74.9811 20.628 75.1682 21.0958 75.1682 21.6921V25.9719H73.8352V22.2651C73.8352 21.8442 73.7533 21.505 73.613 21.2595C73.461 21.0256 73.1803 20.897 72.7594 20.897C72.3267 20.897 71.9993 21.0373 71.7771 21.3063C71.5432 21.5752 71.438 21.9494 71.438 22.4288V25.9719H70.1049V22.195C70.1049 21.774 70.0348 21.4466 69.9062 21.2244C69.7775 21.0139 69.5086 20.897 69.111 20.897C68.655 20.897 68.3159 21.049 68.082 21.3413C67.8481 21.6337 67.7312 22.0196 67.7312 22.499V25.9719H66.3981V19.9381H67.661Z" fill="#38A56F"/>
<path d="M81.9985 19.9381L79.7651 25.855C79.7417 25.9135 79.6949 26.0304 79.6365 26.2058C79.5663 26.3812 79.5312 26.4981 79.5078 26.5566C79.4845 26.6268 79.4377 26.732 79.3675 26.884C79.2974 27.0477 79.2506 27.153 79.2155 27.2114L79.0401 27.4921C78.9582 27.6207 78.8881 27.7143 78.8179 27.761C78.7478 27.8195 78.6659 27.8897 78.5724 27.9715C78.4788 28.0534 78.3736 28.1118 78.28 28.1469C78.1748 28.182 78.0579 28.2171 77.9292 28.2405C77.8006 28.2638 77.6603 28.2755 77.52 28.2755C77.2627 28.2755 76.9587 28.2522 76.5962 28.2054V27.0828C76.8768 27.1413 77.1107 27.1647 77.2978 27.1647C77.3913 27.1647 77.4732 27.153 77.555 27.1296C77.6252 27.1062 77.6954 27.0594 77.7655 26.9893C77.824 26.9191 77.8825 26.8606 77.9292 26.8022C77.976 26.7437 78.0111 26.6618 78.0579 26.5566C78.1046 26.4514 78.1397 26.3695 78.1631 26.311C78.1865 26.2526 78.2099 26.159 78.2566 26.0304C78.2917 25.9135 78.3151 25.8316 78.3268 25.7965L76.0115 19.9381H77.4732L79.0869 24.3816L80.607 19.9381H81.9985Z" fill="#38A56F"/>
<path d="M36.0809 15.3988C34.8436 15.3988 33.9122 14.9773 33.2867 14.1343C32.6612 13.2777 32.3485 11.9859 32.3485 10.2591V4.40549H35.2855V9.91236C35.2855 10.9457 35.4351 11.714 35.7342 12.2171C36.0469 12.7066 36.5229 12.9513 37.1619 12.9513C37.5426 12.9513 37.869 12.863 38.1409 12.6862C38.4265 12.4958 38.6712 12.2307 38.8752 11.8908C39.0791 11.5372 39.2355 11.1293 39.3443 10.667C39.453 10.1911 39.5142 9.68121 39.5278 9.13732V4.40549H42.4444V15.1133H40.0581V11.7072H39.691C39.5142 12.5638 39.2695 13.2641 38.9567 13.808C38.644 14.3518 38.2565 14.753 37.7942 15.0113C37.3319 15.2697 36.7608 15.3988 36.0809 15.3988Z" fill="#224750"/>
<path d="M45.4673 15.1133V4.40549H48.4043V15.1133H45.4673ZM46.9358 2.85541C46.3647 2.85541 45.9228 2.73984 45.6101 2.50868C45.3109 2.26393 45.1614 1.91041 45.1614 1.4481C45.1614 0.9722 45.3109 0.611874 45.6101 0.367125C45.9228 0.122375 46.3647 0 46.9358 0C47.5205 0 47.9624 0.122375 48.2615 0.367125C48.5743 0.611874 48.7306 0.965402 48.7306 1.42771C48.7306 1.89001 48.5743 2.24354 48.2615 2.48829C47.9624 2.73304 47.5205 2.85541 46.9358 2.85541Z" fill="#224750"/>
<path d="M62.6401 15.3988C61.4027 15.3988 60.4713 14.9773 59.8459 14.1343C59.2204 13.2777 58.9077 11.9859 58.9077 10.2591V4.40549H61.8447V9.91236C61.8447 10.9457 61.9942 11.714 62.2934 12.2171C62.6061 12.7066 63.082 12.9513 63.7211 12.9513C64.1018 12.9513 64.4281 12.863 64.7001 12.6862C64.9856 12.4958 65.2304 12.2307 65.4343 11.8908C65.6383 11.5372 65.7946 11.1293 65.9034 10.667C66.0122 10.1911 66.0734 9.68121 66.087 9.13732V4.40549H69.0036V15.1133H66.6173V11.7072H66.2501C66.0734 12.5638 65.8286 13.2641 65.5159 13.808C65.2032 14.3518 64.8156 14.753 64.3533 15.0113C63.891 15.2697 63.32 15.3988 62.6401 15.3988Z" fill="#224750"/>
<path d="M70.9863 15.1133L74.5351 9.74919L71.0067 4.40549H74.372L76.33 8.40307H76.6563L78.5939 4.40549H81.9592L78.4307 9.74919L82 15.1133H78.6347L76.6563 11.0749H76.33L74.3924 15.1133H70.9863Z" fill="#224750"/>
<path d="M0.498535 1.38449H11.5464V8.70753C11.5464 11.7583 9.0732 14.2314 6.02247 14.2314C2.97174 14.2314 0.498535 11.7583 0.498535 8.70753V1.38449Z" fill="#38A56F"/>
<path d="M24.5112 12.1805C24.5112 13.313 23.5932 14.231 22.4607 14.231L15.5139 14.231C14.3814 14.231 13.4634 13.313 13.4634 12.1805L13.4634 5.44043L24.5112 5.44043L24.5112 12.1805Z" fill="#38A56F"/>
<path d="M24.5112 2.71089C24.5112 3.4439 23.917 4.03812 23.184 4.03812L14.7906 4.03812C14.0576 4.03812 13.4634 3.4439 13.4634 2.71089C13.4634 1.97816 14.0574 1.38417 14.7901 1.38417L23.1845 1.38417C23.9172 1.38417 24.5112 1.97816 24.5112 2.71089Z" fill="#38A56F"/>
<path d="M0.498535 16.1509H11.5464V23.4739C11.5464 26.5246 9.0732 28.9978 6.02247 28.9978C2.97174 28.9978 0.498535 26.5246 0.498535 23.4739V16.1509Z" fill="#224750"/>
<path d="M18.9876 22.5752L24.5115 28.9987H13.4636L18.9876 22.5752Z" fill="#9FC955"/>
<path d="M18.9875 22.5752L13.4636 16.1518L24.5115 16.1518L18.9875 22.5752Z" fill="#9FC955"/>
<rect x="51.6644" y="9.83621" width="2.84576" height="2.84576" transform="rotate(-45 51.6644 9.83621)" fill="#224750"/>
</svg>
